<svg width="558" height="207" viewBox="0 0 558 207" fill="none" xmlns="http://www.w3.org/2000/svg">
<path d="M238.35 94.7737C236.95 92.0737 235.15 90.7237 232.95 90.7237C231.45 90.7237 230.05 91.4237 228.75 92.8237C227.55 94.2237 226.75 96.1237 226.35 98.5237C226.35 98.7237 226.3 98.9737 226.2 99.2737C226.2 99.5737 226.2 99.7737 226.2 99.8737C226.2 101.574 226.65 103.224 227.55 104.824C228.45 106.424 229.55 107.574 230.85 108.274C231.95 108.774 232.65 109.024 232.95 109.024C233.35 109.024 234.05 108.774 235.05 108.274C236.25 107.674 237.3 106.524 238.2 104.824C239.2 103.024 239.7 101.324 239.7 99.7237C239.7 98.2237 239.25 96.5737 238.35 94.7737ZM227.55 65.8237C228.95 65.0237 230.6 64.6237 232.5 64.6237C235.6 64.6237 238.25 65.4237 240.45 67.0237C244.05 69.6237 246.15 72.9737 246.75 77.0737C246.95 78.5737 247.2 79.4737 247.5 79.7737C247.8 80.0737 248.75 80.4237 250.35 80.8237C254.65 81.9237 257.85 84.3237 259.95 88.0237C261.15 90.2237 261.75 93.1237 261.75 96.7237C261.75 100.424 261.35 103.024 260.55 104.524L259.35 106.624L261.45 109.174C264.65 113.274 266.25 118.074 266.25 123.574C266.25 127.174 265.75 130.074 264.75 132.274C263.85 134.474 262.2 136.374 259.8 137.974C257.8 139.274 256.05 139.924 254.55 139.924C253.35 139.924 252.3 139.874 251.4 139.774C248 139.574 245.5 138.924 243.9 137.824C240.2 135.424 237.3 132.124 235.2 127.924L233.4 124.324L232.65 126.724C231.15 131.524 227.85 135.224 222.75 137.824C220.25 139.124 218 139.774 216 139.774H214.35C209.15 139.474 205.35 136.924 202.95 132.124C201.75 130.024 201.15 127.974 201.15 125.974C201.15 125.674 201.15 125.174 201.15 124.474C201.25 123.774 201.3 123.174 201.3 122.674C201.6 117.174 203.2 112.624 206.1 109.024L207.6 107.224L206.25 104.374C205.15 102.174 204.6 99.7737 204.6 97.1737C204.6 94.2737 205.25 91.4237 206.55 88.6237C208.85 84.1237 212.15 81.4737 216.45 80.6737C217.35 80.5737 217.95 80.3237 218.25 79.9237C218.55 79.5237 218.8 78.6737 219 77.3737C219.6 72.5737 222.45 68.7237 227.55 65.8237ZM295.07 107.374C293.47 106.474 291.97 106.024 290.57 106.024C289.37 106.024 287.87 106.424 286.07 107.224C282.37 109.224 280.52 111.724 280.52 114.724C280.52 116.124 280.87 117.474 281.57 118.774C283.67 122.774 286.62 124.774 290.42 124.774C291.62 124.774 293.02 124.424 294.62 123.724C297.82 122.124 299.42 119.374 299.42 115.474C299.42 111.774 297.97 109.074 295.07 107.374ZM265.52 106.774C267.12 101.674 270.02 97.3737 274.22 93.8737C278.52 90.3737 283.42 88.6237 288.92 88.6237C291.82 88.6237 294.92 89.2237 298.22 90.4237C300.02 91.0237 301.22 91.3237 301.82 91.3237C302.22 91.3237 303.02 91.0737 304.22 90.5737C305.72 89.8737 307.77 89.5237 310.37 89.5237C313.07 89.5237 315.32 89.9237 317.12 90.7237C320.92 92.5237 322.82 95.8737 322.82 100.774C322.82 104.274 321.62 106.924 319.22 108.724L317.57 110.074L318.77 113.674C320.57 118.874 321.47 124.974 321.47 131.974C321.47 134.074 321.42 135.724 321.32 136.924C321.22 142.924 320.62 147.474 319.52 150.574C316.72 158.574 311.97 164.274 305.27 167.674C303.47 168.574 302.07 169.124 301.07 169.324C300.07 169.524 298.22 169.624 295.52 169.624C291.52 169.624 288.62 169.174 286.82 168.274C285.02 167.274 283.82 166.324 283.22 165.424C282.72 164.624 282.47 163.274 282.47 161.374C282.47 159.074 282.92 157.324 283.82 156.124C284.82 155.024 286.72 154.024 289.52 153.124C292.42 152.124 294.62 151.024 296.12 149.824C297.72 148.624 299.02 146.974 300.02 144.874C301.12 142.674 301.67 140.574 301.67 138.574C301.67 137.574 301.47 137.074 301.07 137.074C300.77 137.074 299.67 137.424 297.77 138.124C295.67 138.924 292.37 139.324 287.87 139.324C284.57 139.324 282.37 139.274 281.27 139.174C280.27 138.974 278.92 138.474 277.22 137.674C273.32 135.674 270.17 132.574 267.77 128.374C265.47 124.174 264.32 119.674 264.32 114.874C264.32 112.374 264.72 109.674 265.52 106.774ZM335.301 89.5237C336.501 87.5237 338.301 85.9737 340.701 84.8737C343.201 83.6737 345.851 83.0737 348.651 83.0737C353.451 83.0737 357.351 84.5737 360.351 87.5737C361.951 89.1737 363.851 90.1237 366.051 90.4237C371.851 91.2237 376.001 94.3237 378.501 99.7237C379.601 102.224 380.151 104.724 380.151 107.224C380.151 110.524 379.401 113.024 377.901 114.724C376.801 115.924 376.601 116.624 377.301 116.824C378.001 117.024 378.801 118.074 379.701 119.974C380.701 121.874 381.201 124.224 381.201 127.024C381.201 129.924 380.701 132.224 379.701 133.924C377.701 137.824 374.001 139.774 368.601 139.774C364.901 139.774 361.851 138.724 359.451 136.624C356.651 134.124 355.251 131.374 355.251 128.374C355.251 127.074 355.601 124.824 356.301 121.624C356.701 120.024 356.901 118.374 356.901 116.674C356.901 112.374 355.251 109.324 351.951 107.524C351.151 107.124 350.351 106.924 349.551 106.924C348.351 106.924 347.201 107.624 346.101 109.024C345.301 110.124 344.901 111.374 344.901 112.774C344.901 114.274 345.551 116.974 346.851 120.874C348.151 124.374 348.801 127.324 348.801 129.724C348.801 131.824 348.251 133.424 347.151 134.524C344.451 137.224 341.001 138.574 336.801 138.574C334.301 138.574 332.051 138.074 330.051 137.074C326.651 135.474 324.251 133.124 322.851 130.024C322.251 128.524 321.951 126.974 321.951 125.374C321.951 122.174 322.951 119.424 324.951 117.124L326.601 115.174L323.601 112.174C322.201 110.774 321.351 109.774 321.051 109.174C320.751 108.474 320.601 107.224 320.601 105.424C320.601 102.024 321.651 99.0237 323.751 96.4237C325.851 93.7237 328.451 92.1237 331.551 91.6237C333.351 91.3237 334.601 90.6237 335.301 89.5237ZM415.684 103.324C414.284 101.024 412.034 99.8737 408.934 99.8737C407.934 99.8737 406.834 100.124 405.634 100.624C404.634 101.024 403.734 101.824 402.934 103.024C402.134 104.124 401.734 105.174 401.734 106.174C401.734 106.274 401.734 106.424 401.734 106.624C401.834 106.724 401.884 106.824 401.884 106.924C402.184 107.924 403.084 108.824 404.584 109.624C406.084 110.424 407.534 110.824 408.934 110.824C412.134 110.824 414.384 109.624 415.684 107.224C416.184 106.224 416.434 105.524 416.434 105.124C416.434 104.724 416.184 104.124 415.684 103.324ZM392.434 85.7737C393.734 84.8737 395.384 84.4237 397.384 84.4237C398.984 84.4237 400.484 84.8237 401.884 85.6237C403.284 86.5237 404.584 86.6737 405.784 86.0737C406.984 85.4737 408.984 85.1737 411.784 85.1737C414.684 85.1737 417.184 85.5237 419.284 86.2237C423.284 87.7237 426.634 90.2737 429.334 93.8737C432.034 97.3737 433.384 101.024 433.384 104.824C433.384 105.524 433.284 106.474 433.084 107.674C431.984 112.674 429.684 116.024 426.184 117.724C422.384 119.624 417.984 120.574 412.984 120.574C411.784 120.574 410.884 120.524 410.284 120.424C409.684 120.324 408.934 120.274 408.034 120.274C406.734 120.274 406.084 120.474 406.084 120.874C406.084 121.374 406.484 121.874 407.284 122.374C407.984 122.974 409.684 123.274 412.384 123.274C414.984 123.274 416.834 122.974 417.934 122.374C419.034 121.674 420.634 121.324 422.734 121.324C424.834 121.324 426.534 121.974 427.834 123.274C429.134 124.574 429.784 126.174 429.784 128.074C429.784 129.874 429.134 131.674 427.834 133.474C426.634 135.174 424.984 136.524 422.884 137.524C420.684 138.624 417.084 139.324 412.084 139.624C410.984 139.724 409.584 139.774 407.884 139.774C405.284 139.774 402.784 139.374 400.384 138.574C394.884 136.774 390.934 134.224 388.534 130.924C386.234 127.624 385.084 123.074 385.084 117.274C385.084 114.374 384.984 112.624 384.784 112.024C384.684 111.424 384.134 110.874 383.134 110.374C380.834 108.974 379.684 106.924 379.684 104.224C379.684 100.124 381.684 97.2237 385.684 95.5237C386.884 95.0237 387.684 94.6237 388.084 94.3237C388.484 93.9237 388.634 93.5237 388.534 93.1237L388.384 92.8237C388.384 92.6237 388.384 92.4737 388.384 92.3737C388.384 91.3737 388.784 90.1737 389.584 88.7737C390.484 87.3737 391.434 86.3737 392.434 85.7737ZM444.46 56.9737C445.56 56.5737 446.76 56.3737 448.06 56.3737C450.36 56.3737 452.56 56.9737 454.66 58.1737C456.76 59.2737 458.36 60.7737 459.46 62.6737C460.56 64.5737 461.11 67.1737 461.11 70.4737C461.11 73.8737 460.66 76.4737 459.76 78.2737L458.26 80.9737L459.61 84.2737C461.11 88.1737 461.86 92.1737 461.86 96.2737C461.86 100.774 460.96 104.974 459.16 108.874L457.66 112.324L459.76 116.824C461.16 119.624 461.86 122.774 461.86 126.274C461.86 131.874 459.81 136.074 455.71 138.874C453.61 140.374 450.71 141.124 447.01 141.124C442.61 141.124 439.06 140.074 436.36 137.974C433.16 135.374 431.56 131.374 431.56 125.974C431.56 121.874 432.51 117.874 434.41 113.974L436.21 110.374L434.56 106.024C433.56 103.124 433.06 99.7737 433.06 95.9737C433.06 91.7737 433.61 88.1737 434.71 85.1737C435.61 82.6737 436.06 81.0737 436.06 80.3737C436.06 79.9737 435.86 79.3737 435.46 78.5737C434.26 76.2737 433.66 73.9237 433.66 71.5237C433.66 68.3237 434.61 65.3737 436.51 62.6737C438.51 59.9737 441.16 58.0737 444.46 56.9737ZM472.474 56.9737C473.574 56.5737 474.774 56.3737 476.074 56.3737C478.374 56.3737 480.574 56.9737 482.674 58.1737C484.774 59.2737 486.374 60.7737 487.474 62.6737C488.574 64.5737 489.124 67.1737 489.124 70.4737C489.124 73.8737 488.674 76.4737 487.774 78.2737L486.274 80.9737L487.624 84.2737C489.124 88.1737 489.874 92.1737 489.874 96.2737C489.874 100.774 488.974 104.974 487.174 108.874L485.674 112.324L487.774 116.824C489.174 119.624 489.874 122.774 489.874 126.274C489.874 131.874 487.824 136.074 483.724 138.874C481.624 140.374 478.724 141.124 475.024 141.124C470.624 141.124 467.074 140.074 464.374 137.974C461.174 135.374 459.574 131.374 459.574 125.974C459.574 121.874 460.524 117.874 462.424 113.974L464.224 110.374L462.574 106.024C461.574 103.124 461.074 99.7737 461.074 95.9737C461.074 91.7737 461.624 88.1737 462.724 85.1737C463.624 82.6737 464.074 81.0737 464.074 80.3737C464.074 79.9737 463.874 79.3737 463.474 78.5737C462.274 76.2737 461.674 73.9237 461.674 71.5237C461.674 68.3237 462.624 65.3737 464.524 62.6737C466.524 59.9737 469.174 58.0737 472.474 56.9737ZM524.187 103.324C522.787 101.024 520.537 99.8737 517.437 99.8737C516.437 99.8737 515.337 100.124 514.137 100.624C513.137 101.024 512.237 101.824 511.437 103.024C510.637 104.124 510.237 105.174 510.237 106.174C510.237 106.274 510.237 106.424 510.237 106.624C510.337 106.724 510.387 106.824 510.387 106.924C510.687 107.924 511.587 108.824 513.087 109.624C514.587 110.424 516.037 110.824 517.437 110.824C520.637 110.824 522.887 109.624 524.187 107.224C524.687 106.224 524.937 105.524 524.937 105.124C524.937 104.724 524.687 104.124 524.187 103.324ZM500.937 85.7737C502.237 84.8737 503.887 84.4237 505.887 84.4237C507.487 84.4237 508.987 84.8237 510.387 85.6237C511.787 86.5237 513.087 86.6737 514.287 86.0737C515.487 85.4737 517.487 85.1737 520.287 85.1737C523.187 85.1737 525.687 85.5237 527.787 86.2237C531.787 87.7237 535.137 90.2737 537.837 93.8737C540.537 97.3737 541.887 101.024 541.887 104.824C541.887 105.524 541.787 106.474 541.587 107.674C540.487 112.674 538.187 116.024 534.687 117.724C530.887 119.624 526.487 120.574 521.487 120.574C520.287 120.574 519.387 120.524 518.787 120.424C518.187 120.324 517.437 120.274 516.537 120.274C515.237 120.274 514.587 120.474 514.587 120.874C514.587 121.374 514.987 121.874 515.787 122.374C516.487 122.974 518.187 123.274 520.887 123.274C523.487 123.274 525.337 122.974 526.437 122.374C527.537 121.674 529.137 121.324 531.237 121.324C533.337 121.324 535.037 121.974 536.337 123.274C537.637 124.574 538.287 126.174 538.287 128.074C538.287 129.874 537.637 131.674 536.337 133.474C535.137 135.174 533.487 136.524 531.387 137.524C529.187 138.624 525.587 139.324 520.587 139.624C519.487 139.724 518.087 139.774 516.387 139.774C513.787 139.774 511.287 139.374 508.887 138.574C503.387 136.774 499.437 134.224 497.037 130.924C494.737 127.624 493.587 123.074 493.587 117.274C493.587 114.374 493.487 112.624 493.287 112.024C493.187 111.424 492.637 110.874 491.637 110.374C489.337 108.974 488.187 106.924 488.187 104.224C488.187 100.124 490.187 97.2237 494.187 95.5237C495.387 95.0237 496.187 94.6237 496.587 94.3237C496.987 93.9237 497.137 93.5237 497.037 93.1237L496.887 92.8237C496.887 92.6237 496.887 92.4737 496.887 92.3737C496.887 91.3737 497.287 90.1737 498.087 88.7737C498.987 87.3737 499.937 86.3737 500.937 85.7737Z" fill="#E3839C"/>
<mask id="path-2-outside-1_37_570" maskUnits="userSpaceOnUse" x="66.9718" y="26.2407" width="125.951" height="124.346" fill="black">
<rect fill="white" x="66.9718" y="26.2407" width="125.951" height="124.346"/>
<path d="M148.777 34.4671C147.359 37.4086 147.637 40.777 149.375 43.4414L144.156 54.2737C136.193 50.2407 127.251 48.4329 118.122 49.1148C89.7878 51.2316 70.313 76.4438 73.1269 101.754C75.52 128.033 98.8023 148.046 125.897 146.022C141.842 144.831 155.699 136.234 163.874 123.117C164.526 125.079 165.381 127.16 166.492 129.081C164.598 132.503 164.128 135.904 164.095 136.161C163.977 137.077 164.631 137.916 165.556 138.037C166.481 138.157 167.327 137.513 167.445 136.598C167.45 136.555 167.726 134.547 168.716 132.229C170.53 134.307 172.805 135.861 175.649 136.322C183.679 137.621 185.982 129.597 182.44 124.825C180.678 122.451 177.946 121.512 174.943 122.248C172.251 122.907 170.213 124.322 168.673 126.009C167.441 123.492 166.645 120.829 166.183 118.969C174.039 103.05 172.419 83.7571 161.787 69.2277L171.795 62.4476C171.975 62.5269 172.155 62.6042 172.341 62.6726C173.216 62.9953 174.186 62.5559 174.509 61.6913C174.832 60.8257 174.384 59.8637 173.509 59.5407C169.01 57.8811 168.281 51.877 172.206 49.2164C174.895 47.3955 178.587 48.0845 180.438 50.7528C182.102 53.1527 181.727 56.4332 179.567 58.3844C178.879 59.0056 178.833 60.0627 179.463 60.7455C180.093 61.4286 181.161 61.4789 181.848 60.8582C185.244 57.7912 185.833 52.6372 183.22 48.8683C180.313 44.6777 174.514 43.595 170.292 46.4552C167.537 48.3218 166.129 51.4129 166.287 54.5L155.268 61.9653C154.248 61.0326 153.486 60.3865 152.403 59.5358L158.149 47.6105C161.263 47.29 164.116 45.4429 165.562 42.4432C167.765 37.8713 165.793 32.362 161.165 30.163C156.527 27.9585 150.985 29.8833 148.777 34.4671ZM180.653 129.354C180.853 131.842 179.408 133.545 176.181 133.023C173.846 132.645 171.98 131.097 170.507 129.09C171.737 127.466 173.436 126.064 175.767 125.493C178.9 124.725 180.481 127.211 180.653 129.354ZM122.656 52.3286C122.629 56.3968 122.188 60.5644 121.354 64.7668C114.499 61.484 107.486 59.0843 100.429 57.601C107.225 54.012 114.83 52.1942 122.656 52.3286ZM96.1135 60.1932C104.367 61.5412 112.597 64.2046 120.607 68.1211C119.905 70.9665 119.028 73.8194 117.979 76.6598C108.295 71.6993 98.0485 68.4519 88.0581 67.1728C90.4502 64.5513 93.1524 62.2049 96.1135 60.1932ZM85.4954 70.2455C95.8734 71.271 106.63 74.5569 116.753 79.7904C115.642 82.4714 114.379 85.1342 112.972 87.7624C102.6 82.3301 91.5818 78.8773 80.8786 77.6982C82.1743 75.0647 83.7229 72.5695 85.4954 70.2455ZM79.4504 80.9108C90.0437 81.9224 101.013 85.2845 111.339 90.6831C109.803 93.318 108.221 95.7484 106.525 98.1195C97.0528 93.2471 86.9668 89.9935 77.1594 88.6451C77.6911 85.9808 78.4621 83.3946 79.4504 80.9108ZM76.3914 100.187C76.2158 97.3899 76.3007 94.6347 76.629 91.9456C85.9188 93.2126 95.4846 96.2656 104.503 100.842C102.629 103.27 100.655 105.576 98.5952 107.749C91.3472 104.232 83.8901 101.692 76.3914 100.187ZM76.7461 103.674C83.2731 105.069 89.7671 107.281 96.1084 110.267C93.7553 112.552 91.3023 114.668 88.766 116.597C85.5907 115.23 82.3524 114.038 79.116 113.044C78.0068 110.062 77.2044 106.928 76.7461 103.674ZM80.8707 117.128C82.4491 117.669 84.0239 118.256 85.5862 118.889C84.6724 119.512 83.7491 120.11 82.8174 120.684C82.1181 119.532 81.4672 118.346 80.8707 117.128ZM84.6651 123.49C108.005 109.074 125.781 79.7665 126.031 52.5107C128.656 52.7492 131.226 53.2102 133.718 53.8762C136.183 82.2598 116.484 115.883 90.0567 129.768C88.0779 127.845 86.2721 125.744 84.6651 123.49ZM120.148 142.772C123.153 140.805 126.062 138.595 128.853 136.163C130.207 137.959 131.453 139.789 132.577 141.636C128.643 142.543 124.473 142.96 120.148 142.772ZM135.95 140.719C134.591 138.412 133.049 136.127 131.352 133.898C133.204 132.151 134.999 130.304 136.73 128.363C138.927 131.613 140.748 134.93 142.165 138.259C140.174 139.223 138.099 140.047 135.95 140.719ZM145.15 136.674C143.551 132.978 141.486 129.307 138.994 125.725C140.639 123.735 142.219 121.655 143.726 119.495C146.619 124.095 148.736 128.759 150.037 133.401C148.486 134.592 146.855 135.687 145.15 136.674ZM152.853 131.057C151.313 126.158 148.937 121.262 145.765 116.457C147.253 114.147 148.634 111.79 149.899 109.399C153.468 115.229 155.834 121.256 156.809 127.009C155.577 128.438 154.256 129.789 152.853 131.057ZM159.532 123.52C158.118 117.669 155.436 111.659 151.657 105.901C152.947 103.198 154.09 100.461 155.085 97.7129C159.377 104.433 162.047 111.378 162.867 117.992C161.888 119.915 160.772 121.762 159.532 123.52ZM167.551 101.628C167.228 105.36 166.441 108.977 165.243 112.415C163.676 106.172 160.689 99.7994 156.437 93.6837C157.438 90.425 158.222 87.1633 158.786 83.9311C165.391 93.1047 166.999 100.029 167.551 101.628ZM167.288 91.5624C165.24 87.3672 162.6 83.212 159.447 79.2424C159.698 76.9076 159.827 74.5978 159.831 72.3253C163.681 77.9398 166.304 84.4697 167.288 91.5624ZM167.163 57.9655C167.599 58.877 168.23 59.7558 168.843 60.3891L159.706 66.5793C159.068 65.8233 158.404 65.0853 157.718 64.3644L167.163 57.9655ZM136.554 99.3037C136.412 99.5843 136.359 99.8856 136.382 100.178C136.427 100.744 136.763 101.274 137.314 101.547C138.149 101.962 139.162 101.628 139.578 100.804C146.317 87.4094 149.395 73.3123 148.38 60.7397C151.276 62.7813 153.931 65.1483 156.284 67.7927C157.473 82.6753 152.539 99.8467 142.728 114.947C138.456 121.521 133.515 127.375 128.087 132.339C128.066 132.354 128.045 132.367 128.025 132.382C127.934 132.453 127.855 132.533 127.782 132.618C123.657 136.352 119.254 139.57 114.653 142.2C110.887 141.577 107.261 140.494 103.841 139.007C116.189 132.283 127.413 121.303 135.707 107.755C136.189 106.968 135.934 105.939 135.136 105.458C134.338 104.977 133.3 105.226 132.817 106.015C124.353 119.841 112.759 130.872 100.099 137.175C97.4732 135.739 94.999 134.055 92.7104 132.152C119.417 117.507 139.003 83.9773 137.182 54.9496C139.816 55.8818 142.345 57.0474 144.743 58.4229C146.392 71.0127 143.491 85.5157 136.554 99.3037ZM154.562 47.2787L149.634 57.5078C148.809 56.9463 147.97 56.4105 147.118 55.9026L151.886 46.0069C152.719 46.5767 153.642 47.0058 154.562 47.2787ZM159.714 33.1754C162.66 34.5759 163.916 38.0838 162.513 40.9947C161.11 43.9072 157.596 45.1312 154.649 43.7453C151.684 42.3554 150.415 38.845 151.826 35.916C153.232 32.9973 156.759 31.7718 159.714 33.1754Z"/>
</mask>
<path d="M148.777 34.4671C147.359 37.4086 147.637 40.777 149.375 43.4414L144.156 54.2737C136.193 50.2407 127.251 48.4329 118.122 49.1148C89.7878 51.2316 70.313 76.4438 73.1269 101.754C75.52 128.033 98.8023 148.046 125.897 146.022C141.842 144.831 155.699 136.234 163.874 123.117C164.526 125.079 165.381 127.16 166.492 129.081C164.598 132.503 164.128 135.904 164.095 136.161C163.977 137.077 164.631 137.916 165.556 138.037C166.481 138.157 167.327 137.513 167.445 136.598C167.45 136.555 167.726 134.547 168.716 132.229C170.53 134.307 172.805 135.861 175.649 136.322C183.679 137.621 185.982 129.597 182.44 124.825C180.678 122.451 177.946 121.512 174.943 122.248C172.251 122.907 170.213 124.322 168.673 126.009C167.441 123.492 166.645 120.829 166.183 118.969C174.039 103.05 172.419 83.7571 161.787 69.2277L171.795 62.4476C171.975 62.5269 172.155 62.6042 172.341 62.6726C173.216 62.9953 174.186 62.5559 174.509 61.6913C174.832 60.8257 174.384 59.8637 173.509 59.5407C169.01 57.8811 168.281 51.877 172.206 49.2164C174.895 47.3955 178.587 48.0845 180.438 50.7528C182.102 53.1527 181.727 56.4332 179.567 58.3844C178.879 59.0056 178.833 60.0627 179.463 60.7455C180.093 61.4286 181.161 61.4789 181.848 60.8582C185.244 57.7912 185.833 52.6372 183.22 48.8683C180.313 44.6777 174.514 43.595 170.292 46.4552C167.537 48.3218 166.129 51.4129 166.287 54.5L155.268 61.9653C154.248 61.0326 153.486 60.3865 152.403 59.5358L158.149 47.6105C161.263 47.29 164.116 45.4429 165.562 42.4432C167.765 37.8713 165.793 32.362 161.165 30.163C156.527 27.9585 150.985 29.8833 148.777 34.4671ZM180.653 129.354C180.853 131.842 179.408 133.545 176.181 133.023C173.846 132.645 171.98 131.097 170.507 129.09C171.737 127.466 173.436 126.064 175.767 125.493C178.9 124.725 180.481 127.211 180.653 129.354ZM122.656 52.3286C122.629 56.3968 122.188 60.5644 121.354 64.7668C114.499 61.484 107.486 59.0843 100.429 57.601C107.225 54.012 114.83 52.1942 122.656 52.3286ZM96.1135 60.1932C104.367 61.5412 112.597 64.2046 120.607 68.1211C119.905 70.9665 119.028 73.8194 117.979 76.6598C108.295 71.6993 98.0485 68.4519 88.0581 67.1728C90.4502 64.5513 93.1524 62.2049 96.1135 60.1932ZM85.4954 70.2455C95.8734 71.271 106.63 74.5569 116.753 79.7904C115.642 82.4714 114.379 85.1342 112.972 87.7624C102.6 82.3301 91.5818 78.8773 80.8786 77.6982C82.1743 75.0647 83.7229 72.5695 85.4954 70.2455ZM79.4504 80.9108C90.0437 81.9224 101.013 85.2845 111.339 90.6831C109.803 93.318 108.221 95.7484 106.525 98.1195C97.0528 93.2471 86.9668 89.9935 77.1594 88.6451C77.6911 85.9808 78.4621 83.3946 79.4504 80.9108ZM76.3914 100.187C76.2158 97.3899 76.3007 94.6347 76.629 91.9456C85.9188 93.2126 95.4846 96.2656 104.503 100.842C102.629 103.27 100.655 105.576 98.5952 107.749C91.3472 104.232 83.8901 101.692 76.3914 100.187ZM76.7461 103.674C83.2731 105.069 89.7671 107.281 96.1084 110.267C93.7553 112.552 91.3023 114.668 88.766 116.597C85.5907 115.23 82.3524 114.038 79.116 113.044C78.0068 110.062 77.2044 106.928 76.7461 103.674ZM80.8707 117.128C82.4491 117.669 84.0239 118.256 85.5862 118.889C84.6724 119.512 83.7491 120.11 82.8174 120.684C82.1181 119.532 81.4672 118.346 80.8707 117.128ZM84.6651 123.49C108.005 109.074 125.781 79.7665 126.031 52.5107C128.656 52.7492 131.226 53.2102 133.718 53.8762C136.183 82.2598 116.484 115.883 90.0567 129.768C88.0779 127.845 86.2721 125.744 84.6651 123.49ZM120.148 142.772C123.153 140.805 126.062 138.595 128.853 136.163C130.207 137.959 131.453 139.789 132.577 141.636C128.643 142.543 124.473 142.96 120.148 142.772ZM135.95 140.719C134.591 138.412 133.049 136.127 131.352 133.898C133.204 132.151 134.999 130.304 136.73 128.363C138.927 131.613 140.748 134.93 142.165 138.259C140.174 139.223 138.099 140.047 135.95 140.719ZM145.15 136.674C143.551 132.978 141.486 129.307 138.994 125.725C140.639 123.735 142.219 121.655 143.726 119.495C146.619 124.095 148.736 128.759 150.037 133.401C148.486 134.592 146.855 135.687 145.15 136.674ZM152.853 131.057C151.313 126.158 148.937 121.262 145.765 116.457C147.253 114.147 148.634 111.79 149.899 109.399C153.468 115.229 155.834 121.256 156.809 127.009C155.577 128.438 154.256 129.789 152.853 131.057ZM159.532 123.52C158.118 117.669 155.436 111.659 151.657 105.901C152.947 103.198 154.09 100.461 155.085 97.7129C159.377 104.433 162.047 111.378 162.867 117.992C161.888 119.915 160.772 121.762 159.532 123.52ZM167.551 101.628C167.228 105.36 166.441 108.977 165.243 112.415C163.676 106.172 160.689 99.7994 156.437 93.6837C157.438 90.425 158.222 87.1633 158.786 83.9311C165.391 93.1047 166.999 100.029 167.551 101.628ZM167.288 91.5624C165.24 87.3672 162.6 83.212 159.447 79.2424C159.698 76.9076 159.827 74.5978 159.831 72.3253C163.681 77.9398 166.304 84.4697 167.288 91.5624ZM167.163 57.9655C167.599 58.877 168.23 59.7558 168.843 60.3891L159.706 66.5793C159.068 65.8233 158.404 65.0853 157.718 64.3644L167.163 57.9655ZM136.554 99.3037C136.412 99.5843 136.359 99.8856 136.382 100.178C136.427 100.744 136.763 101.274 137.314 101.547C138.149 101.962 139.162 101.628 139.578 100.804C146.317 87.4094 149.395 73.3123 148.38 60.7397C151.276 62.7813 153.931 65.1483 156.284 67.7927C157.473 82.6753 152.539 99.8467 142.728 114.947C138.456 121.521 133.515 127.375 128.087 132.339C128.066 132.354 128.045 132.367 128.025 132.382C127.934 132.453 127.855 132.533 127.782 132.618C123.657 136.352 119.254 139.57 114.653 142.2C110.887 141.577 107.261 140.494 103.841 139.007C116.189 132.283 127.413 121.303 135.707 107.755C136.189 106.968 135.934 105.939 135.136 105.458C134.338 104.977 133.3 105.226 132.817 106.015C124.353 119.841 112.759 130.872 100.099 137.175C97.4732 135.739 94.999 134.055 92.7104 132.152C119.417 117.507 139.003 83.9773 137.182 54.9496C139.816 55.8818 142.345 57.0474 144.743 58.4229C146.392 71.0127 143.491 85.5157 136.554 99.3037ZM154.562 47.2787L149.634 57.5078C148.809 56.9463 147.97 56.4105 147.118 55.9026L151.886 46.0069C152.719 46.5767 153.642 47.0058 154.562 47.2787ZM159.714 33.1754C162.66 34.5759 163.916 38.0838 162.513 40.9947C161.11 43.9072 157.596 45.1312 154.649 43.7453C151.684 42.3554 150.415 38.845 151.826 35.916C153.232 32.9973 156.759 31.7718 159.714 33.1754Z" fill="#E3839C"/>
<path d="M148.777 34.4671C147.359 37.4086 147.637 40.777 149.375 43.4414L144.156 54.2737C136.193 50.2407 127.251 48.4329 118.122 49.1148C89.7878 51.2316 70.313 76.4438 73.1269 101.754C75.52 128.033 98.8023 148.046 125.897 146.022C141.842 144.831 155.699 136.234 163.874 123.117C164.526 125.079 165.381 127.16 166.492 129.081C164.598 132.503 164.128 135.904 164.095 136.161C163.977 137.077 164.631 137.916 165.556 138.037C166.481 138.157 167.327 137.513 167.445 136.598C167.45 136.555 167.726 134.547 168.716 132.229C170.53 134.307 172.805 135.861 175.649 136.322C183.679 137.621 185.982 129.597 182.44 124.825C180.678 122.451 177.946 121.512 174.943 122.248C172.251 122.907 170.213 124.322 168.673 126.009C167.441 123.492 166.645 120.829 166.183 118.969C174.039 103.05 172.419 83.7571 161.787 69.2277L171.795 62.4476C171.975 62.5269 172.155 62.6042 172.341 62.6726C173.216 62.9953 174.186 62.5559 174.509 61.6913C174.832 60.8257 174.384 59.8637 173.509 59.5407C169.01 57.8811 168.281 51.877 172.206 49.2164C174.895 47.3955 178.587 48.0845 180.438 50.7528C182.102 53.1527 181.727 56.4332 179.567 58.3844C178.879 59.0056 178.833 60.0627 179.463 60.7455C180.093 61.4286 181.161 61.4789 181.848 60.8582C185.244 57.7912 185.833 52.6372 183.22 48.8683C180.313 44.6777 174.514 43.595 170.292 46.4552C167.537 48.3218 166.129 51.4129 166.287 54.5L155.268 61.9653C154.248 61.0326 153.486 60.3865 152.403 59.5358L158.149 47.6105C161.263 47.29 164.116 45.4429 165.562 42.4432C167.765 37.8713 165.793 32.362 161.165 30.163C156.527 27.9585 150.985 29.8833 148.777 34.4671ZM180.653 129.354C180.853 131.842 179.408 133.545 176.181 133.023C173.846 132.645 171.98 131.097 170.507 129.09C171.737 127.466 173.436 126.064 175.767 125.493C178.9 124.725 180.481 127.211 180.653 129.354ZM122.656 52.3286C122.629 56.3968 122.188 60.5644 121.354 64.7668C114.499 61.484 107.486 59.0843 100.429 57.601C107.225 54.012 114.83 52.1942 122.656 52.3286ZM96.1135 60.1932C104.367 61.5412 112.597 64.2046 120.607 68.1211C119.905 70.9665 119.028 73.8194 117.979 76.6598C108.295 71.6993 98.0485 68.4519 88.0581 67.1728C90.4502 64.5513 93.1524 62.2049 96.1135 60.1932ZM85.4954 70.2455C95.8734 71.271 106.63 74.5569 116.753 79.7904C115.642 82.4714 114.379 85.1342 112.972 87.7624C102.6 82.3301 91.5818 78.8773 80.8786 77.6982C82.1743 75.0647 83.7229 72.5695 85.4954 70.2455ZM79.4504 80.9108C90.0437 81.9224 101.013 85.2845 111.339 90.6831C109.803 93.318 108.221 95.7484 106.525 98.1195C97.0528 93.2471 86.9668 89.9935 77.1594 88.6451C77.6911 85.9808 78.4621 83.3946 79.4504 80.9108ZM76.3914 100.187C76.2158 97.3899 76.3007 94.6347 76.629 91.9456C85.9188 93.2126 95.4846 96.2656 104.503 100.842C102.629 103.27 100.655 105.576 98.5952 107.749C91.3472 104.232 83.8901 101.692 76.3914 100.187ZM76.7461 103.674C83.2731 105.069 89.7671 107.281 96.1084 110.267C93.7553 112.552 91.3023 114.668 88.766 116.597C85.5907 115.23 82.3524 114.038 79.116 113.044C78.0068 110.062 77.2044 106.928 76.7461 103.674ZM80.8707 117.128C82.4491 117.669 84.0239 118.256 85.5862 118.889C84.6724 119.512 83.7491 120.11 82.8174 120.684C82.1181 119.532 81.4672 118.346 80.8707 117.128ZM84.6651 123.49C108.005 109.074 125.781 79.7665 126.031 52.5107C128.656 52.7492 131.226 53.2102 133.718 53.8762C136.183 82.2598 116.484 115.883 90.0567 129.768C88.0779 127.845 86.2721 125.744 84.6651 123.49ZM120.148 142.772C123.153 140.805 126.062 138.595 128.853 136.163C130.207 137.959 131.453 139.789 132.577 141.636C128.643 142.543 124.473 142.96 120.148 142.772ZM135.95 140.719C134.591 138.412 133.049 136.127 131.352 133.898C133.204 132.151 134.999 130.304 136.73 128.363C138.927 131.613 140.748 134.93 142.165 138.259C140.174 139.223 138.099 140.047 135.95 140.719ZM145.15 136.674C143.551 132.978 141.486 129.307 138.994 125.725C140.639 123.735 142.219 121.655 143.726 119.495C146.619 124.095 148.736 128.759 150.037 133.401C148.486 134.592 146.855 135.687 145.15 136.674ZM152.853 131.057C151.313 126.158 148.937 121.262 145.765 116.457C147.253 114.147 148.634 111.79 149.899 109.399C153.468 115.229 155.834 121.256 156.809 127.009C155.577 128.438 154.256 129.789 152.853 131.057ZM159.532 123.52C158.118 117.669 155.436 111.659 151.657 105.901C152.947 103.198 154.09 100.461 155.085 97.7129C159.377 104.433 162.047 111.378 162.867 117.992C161.888 119.915 160.772 121.762 159.532 123.52ZM167.551 101.628C167.228 105.36 166.441 108.977 165.243 112.415C163.676 106.172 160.689 99.7994 156.437 93.6837C157.438 90.425 158.222 87.1633 158.786 83.9311C165.391 93.1047 166.999 100.029 167.551 101.628ZM167.288 91.5624C165.24 87.3672 162.6 83.212 159.447 79.2424C159.698 76.9076 159.827 74.5978 159.831 72.3253C163.681 77.9398 166.304 84.4697 167.288 91.5624ZM167.163 57.9655C167.599 58.877 168.23 59.7558 168.843 60.3891L159.706 66.5793C159.068 65.8233 158.404 65.0853 157.718 64.3644L167.163 57.9655ZM136.554 99.3037C136.412 99.5843 136.359 99.8856 136.382 100.178C136.427 100.744 136.763 101.274 137.314 101.547C138.149 101.962 139.162 101.628 139.578 100.804C146.317 87.4094 149.395 73.3123 148.38 60.7397C151.276 62.7813 153.931 65.1483 156.284 67.7927C157.473 82.6753 152.539 99.8467 142.728 114.947C138.456 121.521 133.515 127.375 128.087 132.339C128.066 132.354 128.045 132.367 128.025 132.382C127.934 132.453 127.855 132.533 127.782 132.618C123.657 136.352 119.254 139.57 114.653 142.2C110.887 141.577 107.261 140.494 103.841 139.007C116.189 132.283 127.413 121.303 135.707 107.755C136.189 106.968 135.934 105.939 135.136 105.458C134.338 104.977 133.3 105.226 132.817 106.015C124.353 119.841 112.759 130.872 100.099 137.175C97.4732 135.739 94.999 134.055 92.7104 132.152C119.417 117.507 139.003 83.9773 137.182 54.9496C139.816 55.8818 142.345 57.0474 144.743 58.4229C146.392 71.0127 143.491 85.5157 136.554 99.3037ZM154.562 47.2787L149.634 57.5078C148.809 56.9463 147.97 56.4105 147.118 55.9026L151.886 46.0069C152.719 46.5767 153.642 47.0058 154.562 47.2787ZM159.714 33.1754C162.66 34.5759 163.916 38.0838 162.513 40.9947C161.11 43.9072 157.596 45.1312 154.649 43.7453C151.684 42.3554 150.415 38.845 151.826 35.916C153.232 32.9973 156.759 31.7718 159.714 33.1754Z" stroke="#E3839C" mask="url(#path-2-outside-1_37_570)"/>
<path d="M70.68 56.788C68.5933 57.0714 66.3461 57.8901 64.131 59.181L61.8517 60.5664L59.8292 60.1256C52.8949 58.6143 45.2544 62.4241 41.9157 69.0363C41.2415 70.3903 40.4711 71.3034 39.3154 72.1535C37.7744 73.3185 35.8161 75.6485 34.8531 77.4118C34.532 78.01 33.3763 78.7657 30.7439 80.0251C21.7872 84.3388 18.9621 87.33 18.609 92.9032C18.3842 96.2722 18.9942 98.3503 20.9204 100.712C22.1082 102.192 22.8466 102.727 25.0938 103.829C27.1805 104.805 27.8225 105.277 27.8225 105.75C27.8225 106.096 26.731 107.513 25.4148 108.93C23.9702 110.473 22.4934 112.456 21.7551 113.873C20.4709 116.266 19.4757 120.013 19.4757 122.343C19.4757 123.917 20.2462 127.57 20.9525 129.27C21.434 130.498 21.434 130.687 20.7599 133.175C17.999 142.998 21.4661 152.318 29.845 157.797C31.2575 158.71 31.6428 159.151 31.8033 160.001C32.1243 161.67 33.4726 164.252 34.7889 165.858C38.0313 169.667 41.4663 171.431 46.7312 171.997C48.5931 172.186 48.9142 172.344 50.2625 173.635C51.0651 174.39 52.8307 175.555 54.1469 176.185C56.5226 177.287 56.6189 177.319 60.728 177.35C64.4841 177.413 65.094 177.476 66.6671 178.2C73.0235 181.097 80.2145 180.31 85.6078 176.091L87.0204 174.989L90.5838 175.178C93.6015 175.335 94.4683 175.272 96.6834 174.674C100.568 173.635 104.195 171.179 106.667 168.03C107.342 167.149 108.048 166.456 108.24 166.456C108.433 166.456 109.653 165.952 110.937 165.354C115.239 163.339 118.61 159.119 119.637 154.491C120.247 151.752 120.247 151.752 121.756 150.02C123.682 147.816 125.191 145.108 126.09 142.211C127.021 139.283 127.117 133.552 126.282 131.096C125.801 129.617 125.801 129.522 126.571 127.885C127.887 125.114 128.433 121.934 128.016 119.541C127.47 116.329 126.828 114.503 125.448 112.456C124.163 110.599 124.163 110.536 124.163 107.733V104.9L126.475 103.798C130.52 101.845 132.895 98.0355 132.895 93.407C132.895 89.3452 131.226 86.354 127.534 83.6776C124.003 81.1587 117.037 77.6951 111.772 75.9319C110.359 75.4281 109.107 74.9558 108.947 74.8299C108.818 74.7354 108.433 73.6019 108.08 72.3424C106.571 67.0212 102.141 62.7075 96.2018 60.7868C94.1151 60.1256 89.396 60.0312 87.3093 60.6294C85.961 60.9758 85.8647 60.9758 84.099 59.7793C80.0219 57.1029 75.5917 56.1268 70.68 56.788ZM77.9352 61.6055C80.1824 62.2982 81.7234 63.2113 83.6817 64.9431L84.9337 66.0766L86.7314 65.4154C91.6432 63.6206 96.7797 64.6282 100.472 68.1547C102.847 70.4217 104.549 74.2316 104.549 77.3488C104.549 78.1989 104.677 78.2619 108.626 79.5528C110.905 80.277 113.794 81.3476 115.078 81.9458C116.362 82.5441 117.486 83.0164 117.582 83.0164C117.647 83.0164 118.931 83.6776 120.375 84.4648C126.282 87.7079 127.695 89.0933 128.369 92.2105C128.851 94.4775 128.305 96.5241 126.732 98.2559C123.714 101.53 118.61 101.499 114.372 98.1614C112.799 96.902 111.483 96.9335 110.52 98.2244C109.878 99.0745 109.878 99.1375 110.423 100.114C111.29 101.656 116.298 104.742 117.968 104.742C118.289 104.742 118.834 104.931 119.155 105.183C119.701 105.561 119.765 106.065 119.797 109.245L119.83 112.834L120.985 114.188C122.526 115.92 123.136 117.274 123.554 119.667C123.971 122.186 123.329 124.862 121.724 127.098C120.728 128.483 120.632 128.766 120.953 129.396C121.659 130.687 122.526 134.497 122.526 136.386C122.526 140.731 120.664 144.982 117.422 148.162L115.56 149.957L115.399 152.318C115.207 155.152 114.308 157.199 112.35 159.119C110.873 160.599 108.016 162.016 106.09 162.3C105.094 162.426 104.741 162.677 104.099 163.748C102.269 166.834 98.6095 169.573 95.2387 170.423C92.9273 170.99 90.038 170.895 87.4698 170.108L85.9931 169.699L84.3237 171.336C79.5083 176.122 72.1888 176.846 66.5387 173.131C65.094 172.155 65.0619 172.155 63.8741 172.659C60.5033 174.076 55.7521 172.785 52.8628 169.699C51.9639 168.754 51.2577 167.873 51.2577 167.715C51.2577 167.589 49.6204 167.4 47.6621 167.337C44.4839 167.243 43.8419 167.117 42.3009 166.33C38.898 164.598 36.2977 161.009 35.9446 157.482C35.7844 155.911 35.7201 155.876 33.9343 154.907C33.9302 154.905 33.9261 154.902 33.9221 154.9C31.097 153.357 28.9461 151.531 27.5657 149.548C23.9381 144.226 23.3281 138.338 25.7679 132.072L26.5705 129.994L25.5111 127.979C24.4838 126.059 24.4517 125.901 24.4517 122.217C24.4838 118.817 24.548 118.281 25.3185 116.676C26.2495 114.723 29.1387 111.449 29.6524 111.764C29.8129 111.858 30.0055 112.897 30.0376 113.999C30.2302 120.611 34.1789 127.948 39.9895 132.513C45.5433 136.858 50.423 138.338 58.4808 138.055C62.1085 137.929 63.0395 137.772 65.5114 136.921C75.0139 133.647 81.5629 126.688 84.1953 117.148C84.9337 114.503 85.0621 113.369 85.0942 109.623C85.0942 105.309 84.6768 102.129 83.8743 100.901C83.3927 100.114 82.4296 100.208 80.985 101.153C77.8068 103.294 73.6976 101.845 72.7988 98.2559C72.2209 96.0518 70.6479 95.6425 68.4649 97.0909C67.3734 97.8781 66.8918 97.9725 64.7409 97.9725C62.5579 97.9725 62.1727 97.8781 61.1133 97.0909C60.3428 96.5241 59.5402 95.4221 58.8019 93.8793C57.9672 92.179 57.4214 91.4548 56.8757 91.3288C55.6237 91.014 54.6606 91.3288 54.179 92.1475C53.537 93.3125 54.4038 95.9574 56.2015 98.3818C57.3893 99.9562 58.0314 100.46 60.0539 101.468C62.8147 102.79 64.9977 103.01 67.7265 102.255L69.2674 101.814L70.3589 103.105C72.253 105.277 74.0508 106.065 77.5821 106.285L80.6319 106.474L80.7282 109.465C81.1455 122.154 71.0331 133.143 58.2561 133.93C50.6477 134.402 43.8419 131.38 38.9622 125.429C33.8579 119.194 32.9911 110.095 36.715 101.782C37.7744 99.3579 40.5995 94.8239 42.1083 93.0291L42.8146 92.2105L40.9847 90.3213C39.5401 88.9044 39.0264 88.0857 38.6091 86.7318C37.1324 81.6939 38.9622 77.3173 43.8098 74.3891C44.5482 73.9482 45.1581 73.3815 45.1581 73.1296C45.1581 72.0591 47.5337 68.1547 48.8178 67.1156C52.3492 64.2819 56.4584 63.4947 60.5354 64.8486L62.8789 65.6043L63.9062 64.7856C68.0796 61.2591 73.1519 60.1256 77.9352 61.6055ZM33.6974 85.5038C33.89 86.9837 35.2062 90.1323 36.3619 91.8641C36.9076 92.6828 36.9076 92.7457 35.6235 94.6979C34.9173 95.8314 33.89 97.5947 33.3121 98.6967L32.3169 100.649H30.3907C26.6989 100.649 23.7775 98.3818 23.0392 94.9183C22.365 91.9271 23.6812 89.3452 27.0199 87.1411C29.1066 85.7872 32.5737 83.9925 33.1516 83.961C33.3442 83.961 33.601 84.6537 33.6974 85.5038Z" fill="#E3839C"/>
<path d="M77.9352 61.6055C80.1824 62.2982 81.7234 63.2113 83.6817 64.9431L84.9337 66.0766L86.7314 65.4154C91.6432 63.6206 96.7797 64.6282 100.472 68.1547C102.847 70.4217 104.549 74.2316 104.549 77.3488C104.549 78.1989 104.677 78.2619 108.626 79.5528C110.905 80.277 113.794 81.3476 115.078 81.9458C116.362 82.5441 117.486 83.0164 117.582 83.0164C117.647 83.0164 118.931 83.6776 120.375 84.4648C126.282 87.7079 127.695 89.0933 128.369 92.2105C128.851 94.4775 128.305 96.5241 126.732 98.2559C123.714 101.53 118.61 101.499 114.372 98.1614C112.799 96.902 111.483 96.9335 110.52 98.2244C109.878 99.0745 109.878 99.1375 110.423 100.114C111.29 101.656 116.298 104.742 117.968 104.742C118.289 104.742 118.834 104.931 119.155 105.183C119.701 105.561 119.765 106.065 119.797 109.245L119.83 112.834L120.985 114.188C122.526 115.92 123.136 117.274 123.554 119.667C123.971 122.186 123.329 124.862 121.724 127.098C120.728 128.483 120.632 128.766 120.953 129.396C121.659 130.687 122.526 134.497 122.526 136.386C122.526 140.731 120.664 144.982 117.422 148.162L115.56 149.957L115.399 152.318C115.207 155.152 114.308 157.199 112.35 159.119C110.873 160.599 108.016 162.016 106.09 162.3C105.094 162.426 104.741 162.677 104.099 163.748C102.269 166.834 98.6095 169.573 95.2387 170.423C92.9273 170.99 90.038 170.895 87.4698 170.108L85.9931 169.699L84.3237 171.336C79.5083 176.122 72.1888 176.846 66.5387 173.131C65.094 172.155 65.0619 172.155 63.8741 172.659C60.5033 174.076 55.7521 172.785 52.8628 169.699C51.9639 168.754 51.2577 167.873 51.2577 167.715C51.2577 167.589 49.6204 167.4 47.6621 167.337C44.4839 167.243 43.8419 167.117 42.3009 166.33C38.898 164.598 36.2977 161.009 35.9446 157.482C35.7844 155.911 35.7201 155.876 33.9343 154.907L33.9221 154.9C31.097 153.357 28.9461 151.531 27.5657 149.548C23.9381 144.226 23.3281 138.338 25.7679 132.072L26.5705 129.994L25.5111 127.979C24.4838 126.059 24.4517 125.901 24.4517 122.217C24.4838 118.817 24.548 118.281 25.3185 116.676C26.2495 114.723 29.1387 111.449 29.6524 111.764C29.8129 111.858 30.0055 112.897 30.0376 113.999C30.2302 120.611 34.1789 127.948 39.9895 132.513C45.5433 136.858 50.423 138.338 58.4808 138.055C62.1085 137.929 63.0395 137.772 65.5114 136.921C75.0139 133.647 81.5629 126.688 84.1953 117.148C84.9337 114.503 85.0621 113.369 85.0942 109.623C85.0942 105.309 84.6768 102.129 83.8743 100.901C83.3927 100.114 82.4296 100.208 80.985 101.153C77.8068 103.294 73.6976 101.845 72.7988 98.2559C72.2209 96.0518 70.6479 95.6425 68.4649 97.0909C67.3734 97.8781 66.8918 97.9725 64.7409 97.9725C62.5579 97.9725 62.1727 97.8781 61.1133 97.0909C60.3428 96.5241 59.5402 95.4221 58.8019 93.8793C57.9672 92.179 57.4214 91.4548 56.8757 91.3288C55.6237 91.014 54.6606 91.3288 54.179 92.1475C53.537 93.3125 54.4038 95.9574 56.2015 98.3818C57.3893 99.9562 58.0314 100.46 60.0539 101.468C62.8147 102.79 64.9977 103.01 67.7265 102.255L69.2674 101.814L70.3589 103.105C72.253 105.277 74.0508 106.065 77.5821 106.285L80.6319 106.474L80.7282 109.465C81.1455 122.154 71.0331 133.143 58.2561 133.93C50.6477 134.402 43.8419 131.38 38.9622 125.429C33.8579 119.194 32.9911 110.095 36.715 101.782C37.7744 99.3579 40.5995 94.8239 42.1083 93.0291L42.8146 92.2105L40.9847 90.3213C39.5401 88.9044 39.0264 88.0857 38.6091 86.7318C37.1324 81.6939 38.9622 77.3173 43.8098 74.3891C44.5482 73.9482 45.1581 73.3815 45.1581 73.1296C45.1581 72.0591 47.5337 68.1547 48.8178 67.1156C52.3492 64.2819 56.4584 63.4947 60.5354 64.8486L62.8789 65.6043L63.9062 64.7856C68.0796 61.2591 73.1519 60.1256 77.9352 61.6055Z" fill="#FFE3EA"/>
<path d="M47.5072 116.597L47.5741 116.451H47.7344H48.9235H48.9683C49.0176 116.444 49.0893 116.448 49.1566 116.497C49.2258 116.548 49.2468 116.616 49.2534 116.646C49.2572 116.664 49.2586 116.679 49.2591 116.689C49.2593 116.695 49.2594 116.7 49.2593 116.705L49.2591 116.711L49.259 116.714L49.2589 116.716L49.2589 116.716L49.2588 116.717C49.2588 116.717 49.2588 116.717 49.0093 116.701L49.2588 116.717L49.2439 116.951H49.1132C49.0838 116.99 49.0422 117.048 48.9841 117.133C48.8356 117.35 48.5868 117.734 48.1719 118.407L48.1719 118.407L48.1684 118.412C47.9182 118.795 47.6914 119.21 47.528 119.565C47.4463 119.742 47.382 119.901 47.3386 120.032C47.2929 120.17 47.2781 120.254 47.2781 120.29C47.2781 120.375 47.3312 120.504 47.49 120.664C47.6436 120.819 47.8687 120.975 48.1392 121.11C48.6841 121.383 49.358 121.547 49.891 121.49L49.9001 121.489L49.9092 121.489L49.9135 121.489C50.1506 121.481 50.3341 121.475 50.4732 121.475C50.6077 121.474 50.7244 121.478 50.8158 121.499C50.919 121.523 51.0366 121.58 51.095 121.715C51.1181 121.769 51.125 121.82 51.1278 121.857C51.1305 121.891 51.1305 121.927 51.1304 121.955V121.959C51.1304 122.068 51.1199 122.193 51.0603 122.304C50.9931 122.429 50.8847 122.5 50.7658 122.539C50.657 122.575 50.5274 122.588 50.3887 122.594C50.2481 122.601 50.0743 122.601 49.868 122.601H49.8624C48.9989 122.601 48.0434 122.491 47.15 121.918L47.1499 121.918L47.1434 121.913C46.8432 121.707 46.4189 121.502 46.0149 121.326C45.8148 121.238 45.6233 121.159 45.4589 121.092C45.437 121.083 45.4154 121.074 45.3943 121.066C45.2597 121.011 45.1433 120.963 45.0641 120.928C43.7387 120.335 43.0241 119.868 42.6516 119.52C42.466 119.347 42.3511 119.191 42.2961 119.049C42.2458 118.919 42.2253 118.731 42.3586 118.601C42.5068 118.455 42.6469 118.342 42.7889 118.29C42.8656 118.261 42.9477 118.248 43.0331 118.261C43.1177 118.273 43.1885 118.307 43.2464 118.347C43.3455 118.416 43.4322 118.523 43.5037 118.612C43.507 118.616 43.5102 118.62 43.5133 118.623L43.5167 118.628C43.5976 118.727 43.6846 118.835 43.7994 118.946C43.9382 119.081 44.204 119.253 44.5103 119.398C44.812 119.541 45.1179 119.642 45.3377 119.663C45.6866 119.662 45.8562 119.611 46.0239 119.449C46.2227 119.258 46.4292 118.9 46.77 118.2L47.5072 116.597Z" fill="#E3839C" stroke="#E3839C" stroke-width="0.5"/>
<path d="M50.5777 114.162C51.4766 114.5 51.901 115.542 51.5257 116.489C50.9053 118.055 47.1381 119.028 47.1381 119.028C47.1381 119.028 44.9894 115.916 45.6395 114.275C46.1068 113.096 47.048 112.834 47.9467 113.172C48.488 113.375 48.8553 113.835 48.9816 114.375C49.4474 114.058 50.0365 113.958 50.5777 114.162Z" fill="#E3839C"/>
<path d="M63.8318 111.732C63.8318 111.732 64.5295 112.543 65.1772 112.789C65.825 113.036 66.979 112.929 66.979 112.929" stroke="#E3839C" stroke-width="2" stroke-linecap="round"/>
<ellipse cx="44.195" cy="102.628" rx="1.6877" ry="1.65529" fill="#E3839C"/>
</svg>
