<svg width="430" height="766" viewBox="0 0 430 766" fill="none" xmlns="http://www.w3.org/2000/svg">
<g clip-path="url(#clip0_107_2)">
<g opacity="0.6" clip-path="url(#clip1_107_2)">
<path d="M448.041 325.227C448.041 346.865 431.903 364.407 411.995 364.407C392.087 364.407 375.948 346.865 375.948 325.227C375.948 303.588 392.087 286.045 411.995 286.045C431.903 286.045 448.041 303.588 448.041 325.227Z" fill="#F98C96"/>
<path d="M403.227 325.227C403.229 309.316 412.085 294.988 425.634 288.968C423.433 287.99 421.149 287.253 418.814 286.768C399.274 290.852 386.478 311.381 390.236 332.621C393.019 348.354 404.339 360.659 418.814 363.684C421.149 363.199 423.434 362.462 425.634 361.483C412.085 355.465 403.229 341.136 403.227 325.227Z" fill="#F9CAD0"/>
<path d="M422.711 325.227C422.706 313.758 427.337 302.866 435.376 295.44C432.466 292.733 429.177 290.549 425.634 288.969C407.211 297.149 398.378 320.012 405.902 340.037C409.562 349.776 416.674 357.505 425.634 361.484C429.178 359.904 432.466 357.719 435.376 355.013C427.337 347.586 422.706 336.694 422.711 325.227Z" fill="#F7B2BB"/>
<path d="M488.958 369.702C488.958 391.341 472.819 408.882 452.911 408.882C433.004 408.882 416.866 391.341 416.866 369.702C416.866 348.063 433.004 330.521 452.911 330.521C472.819 330.521 488.958 348.063 488.958 369.702Z" fill="#FFF69A"/>
<path d="M452.911 379.232C438.275 379.229 425.093 369.605 419.555 354.877C418.655 357.268 417.977 359.751 417.53 362.289C421.287 383.529 440.174 397.437 459.715 393.352C474.19 390.327 485.51 378.023 488.294 362.289C487.847 359.751 487.169 357.268 486.268 354.877C480.731 369.605 467.549 379.229 452.911 379.232Z" fill="#F9BD55"/>
<path d="M452.911 358.053C442.361 358.058 432.341 353.025 425.508 344.287C423.018 347.45 421.009 351.025 419.555 354.876C427.08 374.901 448.115 384.503 466.537 376.324C475.498 372.345 482.609 364.616 486.269 354.876C484.815 351.025 482.805 347.45 480.315 344.287C473.483 353.025 463.462 358.058 452.911 358.053Z" fill="#FFD782"/>
<path d="M411.021 411H375.948C374.872 411 374 410.052 374 408.882C374 407.712 374.872 406.764 375.948 406.764H411.021C412.096 406.763 412.968 405.816 412.969 404.647V402.528C412.968 401.359 412.096 400.411 411.021 400.41H399.33C396.101 400.41 393.484 397.566 393.484 394.057C393.484 390.548 396.101 387.703 399.33 387.703H426.608C427.684 387.703 428.557 388.651 428.557 389.821C428.557 390.99 427.684 391.939 426.608 391.939H399.33C398.253 391.939 397.382 392.887 397.382 394.057C397.382 395.227 398.253 396.175 399.33 396.175H411.021C414.247 396.179 416.862 399.021 416.866 402.529V404.647C416.862 408.154 414.247 410.996 411.021 411Z" fill="#F9BD55"/>
<path d="M381.796 379.232C380.72 379.233 379.847 378.286 379.846 377.116C379.845 376.492 380.098 375.9 380.536 375.497L405.866 352.2C406.681 351.436 407.912 351.536 408.614 352.422C409.316 353.308 409.226 354.645 408.41 355.409C408.401 355.418 408.391 355.427 408.382 355.436L383.052 378.732C382.701 379.055 382.256 379.232 381.796 379.232Z" fill="#AABECE"/>
<path d="M387.639 377.114C387.639 380.623 385.022 383.468 381.793 383.468C378.566 383.468 375.948 380.623 375.948 377.114C375.948 373.605 378.566 370.761 381.793 370.761C385.022 370.761 387.639 373.605 387.639 377.114Z" fill="#F98C96"/>
</g>
<g opacity="0.6" clip-path="url(#clip2_107_2)">
<path d="M-17.0406 393.227C-17.0406 414.865 -0.902653 432.407 19.0051 432.407C38.9129 432.407 55.0518 414.865 55.0518 393.227C55.0518 371.588 38.9129 354.045 19.0051 354.045C-0.902653 354.045 -17.0406 371.588 -17.0406 393.227Z" fill="#7C84E8"/>
<path d="M27.7733 393.227C27.7706 377.316 18.9153 362.988 5.36582 356.968C7.56673 355.99 9.85094 355.253 12.1858 354.768C31.7261 358.852 44.5214 379.381 40.7642 400.621C37.9811 416.354 26.6606 428.659 12.1858 431.684C9.85094 431.199 7.56583 430.462 5.36582 429.483C18.9153 423.465 27.7706 409.136 27.7733 393.227Z" fill="#999FED"/>
<path d="M8.28926 393.227C8.29379 381.758 3.66291 370.866 -4.37572 363.44C-1.46591 360.733 1.82323 358.549 5.36588 356.969C23.7889 365.149 32.6224 388.012 25.098 408.037C21.4377 417.776 14.3262 425.505 5.36588 429.484C1.82233 427.904 -1.46591 425.719 -4.37572 423.013C3.66291 415.586 8.29379 404.694 8.28926 393.227Z" fill="#999FF3"/>
<path d="M-57.958 437.702C-57.958 459.341 -41.8192 476.882 -21.9114 476.882C-2.00363 476.882 14.1343 459.341 14.1343 437.702C14.1343 416.063 -2.00363 398.521 -21.9114 398.521C-41.8192 398.521 -57.958 416.063 -57.958 437.702Z" fill="#AAD0F4"/>
<path d="M-21.9115 447.232C-7.27462 447.229 5.90732 437.605 11.4454 422.877C12.3453 425.268 13.0234 427.751 13.4697 430.289C9.71251 451.529 -9.17405 465.437 -28.7152 461.352C-43.19 458.327 -54.5105 446.023 -57.2935 430.289C-56.8472 427.751 -56.1691 425.268 -55.2683 422.877C-49.7311 437.605 -36.5492 447.229 -21.9115 447.232Z" fill="#5395D4"/>
<path d="M-21.9115 426.053C-11.3614 426.058 -1.34098 421.025 5.49171 412.287C7.98143 415.45 9.99132 419.025 11.4453 422.876C3.92002 442.901 -17.1149 452.503 -35.5371 444.324C-44.4982 440.345 -51.6089 432.616 -55.2692 422.876C-53.8152 419.025 -51.8053 415.45 -49.3156 412.287C-42.4829 421.025 -32.4625 426.058 -21.9115 426.053Z" fill="#5DA9F2"/>
<path d="M19.9792 479H55.0517C56.1281 479 57 478.052 57 476.882C57 475.712 56.1281 474.764 55.0517 474.764H19.9792C18.9037 474.763 18.0318 473.816 18.0309 472.647V470.528C18.0318 469.359 18.9037 468.411 19.9792 468.41H31.67C34.8985 468.41 37.5159 465.566 37.5159 462.057C37.5159 458.548 34.8985 455.703 31.67 455.703H4.39176C3.3162 455.703 2.44344 456.651 2.44344 457.821C2.44344 458.99 3.3162 459.939 4.39176 459.939H31.67C32.7465 459.939 33.6184 460.887 33.6184 462.057C33.6184 463.227 32.7465 464.175 31.67 464.175H19.9792C16.7525 464.179 14.1379 467.021 14.1343 470.529V472.647C14.1379 476.154 16.7525 478.996 19.9792 479Z" fill="#5395D4"/>
<path d="M49.2039 447.232C50.2804 447.233 51.1531 446.286 51.1541 445.116C51.155 444.492 50.9024 443.9 50.4642 443.497L25.1342 420.2C24.3194 419.436 23.0881 419.536 22.3856 420.422C21.6839 421.308 21.7745 422.645 22.5902 423.409C22.5992 423.418 22.6092 423.427 22.6182 423.436L47.9482 446.732C48.2995 447.055 48.744 447.232 49.2039 447.232Z" fill="#AABECE"/>
<path d="M43.3609 445.114C43.3609 448.623 45.9783 451.468 49.2068 451.468C52.4344 451.468 55.0518 448.623 55.0518 445.114C55.0518 441.605 52.4344 438.761 49.2068 438.761C45.9783 438.761 43.3609 441.605 43.3609 445.114Z" fill="#7C84E8"/>
</g>
</g>
<defs>
<clipPath id="clip0_107_2">
<rect width="430" height="766" fill="white"/>
</clipPath>
<clipPath id="clip1_107_2">
<rect width="115" height="125" fill="white" transform="translate(374 286)"/>
</clipPath>
<clipPath id="clip2_107_2">
<rect width="115" height="125" fill="white" transform="matrix(-1 0 0 1 57 354)"/>
</clipPath>
</defs>
</svg>
