<svg width="1920" height="850" viewBox="0 0 1920 850" fill="none" xmlns="http://www.w3.org/2000/svg">
<g clip-path="url(#clip0_107_2)">
<g opacity="0.6" clip-path="url(#clip1_107_2)">
<path d="M1960.92 184.906C1960.92 271.462 1890.75 341.627 1804.2 341.627C1717.64 341.627 1647.47 271.462 1647.47 184.906C1647.47 98.3504 1717.64 28.1816 1804.2 28.1816C1890.75 28.1816 1960.92 98.3504 1960.92 184.906Z" fill="#F98C96"/>
<path d="M1766.07 184.906C1766.08 121.264 1804.59 63.9511 1863.5 39.8726C1853.93 35.9599 1844 33.0116 1833.84 31.071C1748.89 47.4068 1693.25 129.522 1709.59 214.484C1721.69 277.418 1770.91 326.637 1833.84 338.737C1844 336.797 1853.93 333.849 1863.5 329.932C1804.59 305.861 1766.08 248.545 1766.07 184.906Z" fill="#F9CAD0"/>
<path d="M1850.79 184.906C1850.77 139.032 1870.9 95.4651 1905.85 65.7577C1893.2 54.9329 1878.9 46.1943 1863.5 39.8765C1783.4 72.5951 1744.99 164.048 1777.7 244.148C1793.62 283.105 1824.54 314.021 1863.5 329.936C1878.9 323.614 1893.2 314.875 1905.85 304.05C1870.9 274.343 1850.77 230.776 1850.79 184.906Z" fill="#F7B2BB"/>
<path d="M2138.82 362.808C2138.82 449.364 2068.65 519.528 1982.09 519.528C1895.54 519.528 1825.37 449.364 1825.37 362.808C1825.37 276.252 1895.54 206.083 1982.09 206.083C2068.65 206.083 2138.82 276.252 2138.82 362.808Z" fill="#FFF69A"/>
<path d="M1982.09 400.927C1918.45 400.915 1861.14 362.418 1837.06 303.507C1833.15 313.073 1830.2 323.004 1828.26 333.156C1844.6 418.117 1926.71 473.749 2011.67 457.409C2074.61 445.309 2123.83 396.093 2135.93 333.156C2133.99 323.004 2131.04 313.073 2127.12 303.507C2103.05 362.418 2045.74 400.915 1982.09 400.927Z" fill="#F9BD55"/>
<path d="M1982.09 316.214C1936.22 316.233 1892.66 296.099 1862.95 261.149C1852.12 273.8 1843.39 288.101 1837.06 303.503C1869.78 383.604 1961.24 422.014 2041.33 389.295C2080.3 373.381 2111.21 342.465 2127.13 303.503C2120.81 288.101 2112.07 273.8 2101.24 261.149C2071.53 296.099 2027.97 316.233 1982.09 316.214Z" fill="#FFD782"/>
<path d="M1799.96 527.999H1647.47C1642.79 527.999 1639 524.209 1639 519.528C1639 514.848 1642.79 511.057 1647.47 511.057H1799.96C1804.64 511.054 1808.43 507.263 1808.43 502.587V494.112C1808.43 489.435 1804.64 485.645 1799.96 485.641H1749.13C1735.09 485.641 1723.71 474.265 1723.71 460.228C1723.71 446.191 1735.09 434.811 1749.13 434.811H1867.73C1872.41 434.811 1876.2 438.606 1876.2 443.286C1876.2 447.962 1872.41 451.757 1867.73 451.757H1749.13C1744.45 451.757 1740.66 455.548 1740.66 460.228C1740.66 464.908 1744.45 468.699 1749.13 468.699H1799.96C1813.99 468.715 1825.36 480.083 1825.37 494.116V502.587C1825.36 516.616 1813.99 527.984 1799.96 527.999Z" fill="#F9BD55"/>
<path d="M1672.9 400.927C1668.22 400.931 1664.42 397.144 1664.42 392.464C1664.41 389.968 1665.51 387.599 1667.42 385.989L1777.55 292.8C1781.09 289.746 1786.44 290.143 1789.5 293.69C1792.55 297.233 1792.15 302.582 1788.61 305.637C1788.57 305.672 1788.52 305.708 1788.49 305.743L1678.36 398.927C1676.83 400.219 1674.9 400.927 1672.9 400.927Z" fill="#AABECE"/>
<path d="M1698.3 392.456C1698.3 406.493 1686.92 417.873 1672.88 417.873C1658.85 417.873 1647.47 406.493 1647.47 392.456C1647.47 378.419 1658.85 367.043 1672.88 367.043C1686.92 367.043 1698.3 378.419 1698.3 392.456Z" fill="#F98C96"/>
</g>
<g opacity="0.6" clip-path="url(#clip2_107_2)">
<path d="M-51.9158 460.906C-51.9158 547.462 18.249 617.627 104.805 617.627C191.36 617.627 261.529 547.462 261.529 460.906C261.529 374.35 191.36 304.182 104.805 304.182C18.249 304.182 -51.9158 374.35 -51.9158 460.906Z" fill="#7C84E8"/>
<path d="M142.928 460.906C142.916 397.264 104.415 339.951 45.5041 315.873C55.0733 311.96 65.0046 309.012 75.1564 307.071C160.114 323.407 215.746 405.522 199.41 490.484C187.31 553.418 138.09 602.637 75.1564 614.737C65.0046 612.797 55.0694 609.849 45.5041 605.932C104.415 581.861 142.916 524.545 142.928 460.906Z" fill="#999FED"/>
<path d="M58.2144 460.906C58.234 415.032 38.0998 371.465 3.14924 341.758C15.8006 330.933 30.1012 322.194 45.504 315.876C125.604 348.595 164.011 440.048 131.296 520.148C115.381 559.105 84.4617 590.021 45.504 605.936C30.0973 599.614 15.8006 590.875 3.14924 580.05C38.0998 550.343 58.234 506.776 58.2144 460.906Z" fill="#999FF3"/>
<path d="M-229.818 638.808C-229.818 725.364 -159.649 795.528 -73.0933 795.528C13.4624 795.528 83.6272 725.364 83.6272 638.808C83.6272 552.252 13.4624 482.083 -73.0933 482.083C-159.649 482.083 -229.818 552.252 -229.818 638.808Z" fill="#AAD0F4"/>
<path d="M-73.0932 676.927C-9.45477 676.915 47.858 638.418 71.9364 579.507C75.8491 589.073 78.7974 599.004 80.738 609.156C64.4023 694.117 -17.7132 749.749 -102.675 733.409C-165.608 721.309 -214.828 672.093 -226.928 609.156C-224.988 599.004 -222.039 589.073 -218.123 579.507C-194.048 638.418 -136.736 676.915 -73.0932 676.927Z" fill="#5395D4"/>
<path d="M-73.0931 592.214C-27.2232 592.233 16.3439 572.099 46.0513 537.149C56.8762 549.8 65.6148 564.101 71.9365 579.503C39.2179 659.604 -52.2385 698.014 -132.335 665.295C-171.296 649.381 -202.212 618.465 -218.127 579.503C-211.805 564.101 -203.066 549.8 -192.241 537.149C-162.534 572.099 -118.967 592.233 -73.0931 592.214Z" fill="#5DA9F2"/>
<path d="M109.04 803.999H261.529C266.209 803.999 270 800.209 270 795.528C270 790.848 266.209 787.057 261.529 787.057H109.04C104.364 787.054 100.573 783.263 100.569 778.587V770.112C100.573 765.435 104.364 761.645 109.04 761.641H159.87C173.907 761.641 185.287 750.265 185.287 736.228C185.287 722.191 173.907 710.811 159.87 710.811H41.2686C36.5922 710.811 32.7976 714.606 32.7976 719.286C32.7976 723.962 36.5922 727.757 41.2686 727.757H159.87C164.55 727.757 168.341 731.548 168.341 736.228C168.341 740.908 164.55 744.699 159.87 744.699H109.04C95.0111 744.715 83.643 756.083 83.6273 770.116V778.587C83.643 792.616 95.0111 803.984 109.04 803.999Z" fill="#5395D4"/>
<path d="M236.104 676.927C240.785 676.931 244.579 673.144 244.583 668.464C244.587 665.968 243.489 663.599 241.584 661.989L131.454 568.8C127.911 565.746 122.557 566.143 119.503 569.69C116.452 573.233 116.846 578.582 120.392 581.637C120.432 581.672 120.475 581.708 120.515 581.743L230.645 674.927C232.172 676.219 234.105 676.927 236.104 676.927Z" fill="#AABECE"/>
<path d="M210.699 668.456C210.699 682.493 222.079 693.873 236.116 693.873C250.149 693.873 261.529 682.493 261.529 668.456C261.529 654.419 250.149 643.043 236.116 643.043C222.079 643.043 210.699 654.419 210.699 668.456Z" fill="#7C84E8"/>
</g>
</g>
<defs>
<clipPath id="clip0_107_2">
<rect width="1920" height="850" fill="white"/>
</clipPath>
<clipPath id="clip1_107_2">
<rect width="500" height="500" fill="white" transform="translate(1639 28)"/>
</clipPath>
<clipPath id="clip2_107_2">
<rect width="500" height="500" fill="white" transform="matrix(-1 0 0 1 270 304)"/>
</clipPath>
</defs>
</svg>
