<svg width="1441" height="190" viewBox="0 0 1441 190" fill="none" xmlns="http://www.w3.org/2000/svg">
<path d="M0 190C3.19544 182 45.9345 114 101.855 104C157.775 94 233.667 146 233.667 146C233.667 146 292.037 75.5639 348 56C403.963 36.4362 501.285 56 501.285 56C501.285 56 551.213 0 601.142 0C681.028 0 710.986 56 710.986 56C710.986 56 794.866 0 886.735 34C925.071 48.188 964.624 104 964.624 104C964.624 104 1018 54.1933 1094 56C1153.23 57.4081 1228.25 126 1228.25 126C1228.25 126 1250.22 34.0001 1344.08 56C1377.65 63.8679 1400.22 85.2941 1415.98 116C1446 174.5 1439.5 190 1439.5 190H0Z" fill="#FFE3EA"/>
</svg>
