<svg width="1440" height="182" viewBox="0 0 1440 182" fill="none" xmlns="http://www.w3.org/2000/svg">
<path d="M0 182C3.19523 174.337 45.9315 109.2 101.848 99.6211C157.765 90.0421 233.651 139.853 233.651 139.853C233.651 139.853 295.426 71.7436 349.479 53.6422C405.438 34.902 501.252 53.6422 501.252 53.6422C501.252 53.6422 551.178 0 601.103 0C680.984 0 710.939 53.6422 710.939 53.6422C710.939 53.6422 794.814 0 886.677 32.5685C925.011 46.159 964.561 99.6211 964.561 99.6211C964.561 99.6211 1017.93 51.9114 1093.93 53.6422C1153.15 54.9909 1228.17 120.695 1228.17 120.695C1228.17 120.695 1250.13 32.5685 1343.99 53.6422C1377.56 61.1787 1400.13 81.7028 1415.89 111.116C1445.91 167.153 1439.41 182 1439.41 182H0Z" fill="white"/>
</svg>
